<svg width="66" height="66" viewBox="0 0 66 66" fill="none" xmlns="http://www.w3.org/2000/svg">
<rect x="0.5" y="0.5" width="65" height="65" rx="7.5" fill="#FFF9F0"/>
<rect x="0.5" y="0.5" width="65" height="65" rx="7.5" stroke="#FFEACC"/>
<path d="M33.1814 49.317C38.1903 49.317 42.2316 45.2757 42.2316 40.281C42.2316 35.2721 38.1903 31.2308 33.1814 31.2308C28.1867 31.2308 24.1454 35.2721 24.1454 40.281C24.1454 45.2757 28.1867 49.317 33.1814 49.317ZM30.6057 44.9341C30.065 45.3325 29.4958 44.9199 29.7093 44.2938L30.7338 41.2343L28.1155 39.3703C27.6175 39.0003 27.774 38.303 28.457 38.303L31.673 38.3315L32.6549 35.2579C32.854 34.6318 33.5371 34.6318 33.7363 35.2579L34.7182 38.3315L37.9341 38.303C38.6171 38.303 38.7595 39.0145 38.2757 39.3561L35.6573 41.2343L36.6819 44.2938C36.8954 44.9199 36.3261 45.3325 35.7854 44.9341L33.1956 43.0415L30.6057 44.9341ZM24.5153 33.5076C25.9099 31.743 27.8309 30.4054 30.0365 29.7508L23.5904 18.1677L19.8479 23.8739C19.5918 24.2439 19.5776 24.6565 19.8052 25.0265L24.5153 33.5076ZM29.9939 24.8984H36.3831L40.7232 17.2143H25.6537L29.9939 24.8984ZM36.3404 29.7508C38.5603 30.4054 40.4671 31.743 41.8616 33.5076L46.5859 25.0265C46.7994 24.6565 46.7852 24.2439 46.5291 23.8739L42.7865 18.1677L36.3404 29.7508Z" fill="#FF9500"/>
</svg>
