<svg width="66" height="66" viewBox="0 0 66 66" fill="none" xmlns="http://www.w3.org/2000/svg">
<rect x="0.5" y="0.5" width="65" height="65" rx="7.5" fill="#FFF9F0"/>
<rect x="0.5" y="0.5" width="65" height="65" rx="7.5" stroke="#FFEACC"/>
<path d="M32.4955 47.1588C32.7232 47.1588 33.079 47.0733 33.4347 46.8884C41.5315 42.6479 44.1356 40.5276 44.1356 35.4191V24.6897C44.1356 23.224 43.5094 22.7545 42.3142 22.2564C40.6493 21.5734 35.3273 19.6381 33.6766 19.0689C33.2924 18.9408 32.894 18.8697 32.4955 18.8697C32.0971 18.8697 31.6987 18.9551 31.3287 19.0689C29.6638 19.6096 24.3418 21.5876 22.6769 22.2564C21.4958 22.7402 20.8555 23.224 20.8555 24.6897V35.4191C20.8555 40.5276 23.6018 42.406 31.5564 46.8884C31.9263 47.0876 32.2679 47.1588 32.4955 47.1588ZM26.0778 33.4838C26.0778 33.313 26.1632 33.0996 26.3198 32.9146L34.3597 22.8256C34.9715 22.0572 35.9962 22.5695 35.6262 23.5229L32.9794 30.6378H37.9456C38.3298 30.6378 38.6144 30.9081 38.6144 31.2925C38.6144 31.4632 38.529 31.6767 38.3725 31.8616L30.3326 41.9506C29.7207 42.719 28.7104 42.2067 29.0661 41.2676L31.7271 34.1384H26.7466C26.3767 34.1384 26.0778 33.868 26.0778 33.4838Z" fill="#FF9500"/>
</svg>
