<svg width="66" height="66" viewBox="0 0 66 66" fill="none" xmlns="http://www.w3.org/2000/svg">
<rect x="0.5" y="0.5" width="65" height="65" rx="7.5" fill="#FFF9F0"/>
<rect x="0.5" y="0.5" width="65" height="65" rx="7.5" stroke="#FFEACC"/>
<path d="M28.7969 41.4617C33.6154 40.1356 35.6777 36.3267 34.3191 31.1918L32.4914 24.2122C31.9929 22.3377 30.781 21.6597 28.9142 22.1582L19.2284 24.7806C17.3518 25.299 16.6579 26.4955 17.1564 28.4099L18.9743 35.3795C20.3133 40.5045 23.9785 42.7779 28.7969 41.4617ZM27.8782 37.8922C25.8354 38.4306 23.8514 37.7227 22.8056 36.0276C22.6004 35.7185 22.7763 35.4094 23.1672 35.4394C24.4671 35.549 26.0114 35.3196 27.1256 35.0106C28.2203 34.7214 29.6472 34.1431 30.7321 33.3754C31.0546 33.1361 31.3772 33.3055 31.3576 33.7144C31.2892 35.7086 29.9307 37.3138 27.8782 37.8922ZM22.9522 31.3414C22.2192 31.5507 22.1214 32.0493 21.8087 32.0991C21.6621 32.129 21.4861 31.9595 21.3982 31.6704C21.1636 30.8229 21.6914 29.9155 22.5319 29.7061C23.3823 29.4967 24.2521 30.0052 24.4671 30.8229C24.5551 31.1219 24.4769 31.3513 24.3205 31.4111C23.9589 31.5407 23.6168 31.1618 22.9522 31.3414ZM28.9142 29.6962C28.1812 29.9155 28.0834 30.4041 27.7706 30.444C27.6241 30.4739 27.4481 30.3044 27.3602 30.0252C27.1256 29.1877 27.6534 28.2703 28.4939 28.061C29.354 27.8316 30.2141 28.3501 30.4291 29.1777C30.5171 29.4868 30.439 29.7061 30.2826 29.766C29.9307 29.8956 29.5788 29.5067 28.9142 29.6962ZM47.758 27.363L38.082 24.7207C36.3618 24.2521 35.1499 24.7706 34.6514 26.326L34.5341 26.7548L35.6093 30.8428C36.6843 34.9209 35.8048 38.3708 33.3027 40.6042C34.2605 42.2195 35.9611 43.4259 38.2091 44.0341C43.008 45.3403 46.6536 43.067 48.0024 37.942L49.8496 30.9824C50.3383 29.0979 49.6346 27.8715 47.758 27.363ZM37.9061 33.4053C37.2317 33.2358 36.8309 32.5378 37.0167 31.8299C37.2023 31.1419 37.8866 30.7331 38.5609 30.9226C39.2353 31.112 39.636 31.82 39.4601 32.5079C39.2744 33.1959 38.5902 33.5947 37.9061 33.4053ZM43.6433 34.9707C42.9787 34.7912 42.578 34.0833 42.7636 33.3853C42.9395 32.6974 43.6238 32.2986 44.2982 32.488C44.9823 32.6575 45.3732 33.3654 45.1973 34.0634C45.0116 34.7514 44.3274 35.1601 43.6433 34.9707ZM39.5285 38.7995C38.5121 38.5103 37.5347 38.5003 36.2837 38.7795C35.8927 38.8693 35.6581 38.5402 35.8634 38.2112C36.7039 36.8651 38.4045 36.3068 40.0563 36.7754C41.7667 37.2141 42.9298 38.5502 42.9884 40.1455C43.008 40.5444 42.6464 40.7139 42.3531 40.4447C41.3856 39.5473 40.5548 39.0687 39.5285 38.7995Z" fill="#FF9500"/>
</svg>
